<svg width="111" height="17" viewBox="0 0 111 17" fill="none" xmlns="http://www.w3.org/2000/svg">
<g clip-path="url(#clip0_94_9347)">
<path d="M4.04353 3.72612V7.32604H12.156V11.0023H4.04353V17.0033H0V0H12.1592V3.72612H4.04353Z" fill="#151515"/>
<path d="M24.347 17L21.2603 12.075H18.1736V17H14.1301V0H21.2381C25.2816 0 27.9868 2.30143 27.9868 5.97441C27.9868 8.19945 26.9569 9.99941 25.2339 11.0488L29.0645 17H24.3502H24.347ZM18.1736 8.27584H21.165C22.7194 8.27584 23.9401 7.37585 23.9401 5.97441C23.9401 4.57296 22.7194 3.72612 21.165 3.72612H18.1736V8.27584Z" fill="#151515"/>
<path d="M34.7898 3.67298V6.77476H43.0454V10.3747H34.7898V13.327H43.0454V17H30.7431V0H43.0454V3.67298H34.7898Z" fill="#151515"/>
<path d="M49.565 3.67298V6.77476H57.8206V10.3747H49.565V13.327H57.8206V17H45.5183V0H57.8206V3.67298H49.565Z" fill="#151515"/>
<path d="M77.8599 17H73.8163V8.47509L70.2019 14.3001V14.3233H67.9513V14.3001L64.3147 8.42528L64.3401 17H60.2966V0H63.3133L69.0798 9.07619L74.8431 0H77.8599V17Z" fill="#151515"/>
<path d="M84.9557 3.67298V6.77476H93.2112V10.3747H84.9557V13.327H93.2112V17H80.909V0H93.2112V3.67298H84.9557Z" fill="#151515"/>
<path d="M111 8.45185C111 13.503 107.338 17.0033 102.217 17.0033H95.6842V0H102.217C107.338 0 111 3.47373 111 8.45185ZM106.909 8.45185C106.909 5.82497 104.874 3.79918 102.217 3.79918H99.7277V13.2008H102.217C104.874 13.2008 106.909 11.1518 106.909 8.45185Z" fill="#151515"/>
</g>
<defs>
<clipPath id="clip0_94_9347">
<rect width="111" height="17" fill="white"/>
</clipPath>
</defs>
</svg>
